<?xml version="1.0" encoding="UTF-8"?>
<!DOCTYPE svg PUBLIC "-//W3C//DTD SVG 1.1//EN" "http://www.w3.org/Graphics/SVG/1.1/DTD/svg11.dtd">
<svg xmlns="http://www.w3.org/2000/svg" version="1.1" width="498px" height="501px" style="shape-rendering:geometricPrecision; text-rendering:geometricPrecision; image-rendering:optimizeQuality; fill-rule:evenodd; clip-rule:evenodd" xmlns:xlink="http://www.w3.org/1999/xlink">
<g><path style="opacity:0.89" fill="#88d4e5" d="M 239.5,13.5 C 233.395,14.9965 227.062,15.6631 220.5,15.5C 226.605,14.0035 232.938,13.3369 239.5,13.5 Z"/></g>
<g><path style="opacity:1" fill="#46b1cb" d="M 277.5,14.5 C 278.833,15.1667 280.167,15.8333 281.5,16.5C 260.164,16.3334 238.831,16.5 217.5,17C 214.298,17.1978 211.298,18.0311 208.5,19.5C 210.113,20.4274 211.779,21.2607 213.5,22C 212.391,22.6377 211.225,23.1377 210,23.5C 207.024,20.7364 203.524,19.903 199.5,21C 200.167,21.3333 200.833,21.6667 201.5,22C 199.414,23.8272 197.414,23.8272 195.5,22C 199.226,20.9568 198.893,20.4568 194.5,20.5C 202.853,17.8303 211.519,16.1636 220.5,15.5C 227.062,15.6631 233.395,14.9965 239.5,13.5C 252.209,12.4141 264.876,12.7475 277.5,14.5 Z"/></g>
<g><path style="opacity:0.812" fill="#7dcfe1" d="M 277.5,14.5 C 283.767,14.6555 289.767,15.6555 295.5,17.5C 290.819,17.3314 286.152,16.9981 281.5,16.5C 280.167,15.8333 278.833,15.1667 277.5,14.5 Z"/></g>
<g><path style="opacity:1" fill="#02a8c9" d="M 281.5,16.5 C 286.152,16.9981 290.819,17.3314 295.5,17.5C 298.237,17.4013 300.904,17.7347 303.5,18.5C 305.438,20.1628 307.772,20.8294 310.5,20.5C 310.833,20.5 311.167,20.5 311.5,20.5C 312.642,22.4331 314.308,23.9331 316.5,25C 322.202,25.7376 327.868,26.571 333.5,27.5C 335.703,27.6036 337.703,28.2702 339.5,29.5C 341.431,32.2644 344.098,33.9311 347.5,34.5C 347.5,35.5 347.5,36.5 347.5,37.5C 351.652,39.0617 355.985,39.7284 360.5,39.5C 361.007,40.8589 362.007,41.8589 363.5,42.5C 367.314,44.7439 371.314,46.4106 375.5,47.5C 375.833,47.5 376.167,47.5 376.5,47.5C 376.586,48.4959 376.252,49.3292 375.5,50C 381.535,52.8606 387.201,56.3606 392.5,60.5C 393.689,61.4287 395.022,61.762 396.5,61.5C 396.892,63.1789 397.392,64.8455 398,66.5C 398.451,64.0712 399.285,63.9045 400.5,66C 400.167,66.3333 399.833,66.6667 399.5,67C 403.082,68.6198 406.082,70.9531 408.5,74C 409.448,74.4828 410.448,74.6495 411.5,74.5C 411.351,75.552 411.517,76.552 412,77.5C 413,77.8333 414,78.1667 415,78.5C 418.167,82.6667 421.333,86.8333 424.5,91C 423.448,92.7165 424.114,93.7165 426.5,94C 426.167,94.3333 425.833,94.6667 425.5,95C 427.791,95.0154 429.958,95.1821 432,95.5C 431.981,97.1075 431.815,98.7741 431.5,100.5C 433.199,100.34 434.866,100.506 436.5,101C 436.982,102.008 437.148,103.175 437,104.5C 437.671,103.748 438.504,103.414 439.5,103.5C 439.979,107.292 441.646,110.459 444.5,113C 443.289,114.113 443.289,115.28 444.5,116.5C 447.184,118.193 449.851,119.86 452.5,121.5C 460.623,132.072 466.957,143.738 471.5,156.5C 483.888,183.76 490.554,212.426 491.5,242.5C 490.699,256.041 489.532,269.708 488,283.5C 487.667,283.167 487.333,282.833 487,282.5C 486.5,283.5 486,284.5 485.5,285.5C 488.248,289.7 487.915,293.7 484.5,297.5C 483.833,294.167 483.167,290.833 482.5,287.5C 481.67,293.138 481.17,298.804 481,304.5C 480.111,303.112 479.611,303.278 479.5,305C 481.225,307.077 482.725,306.577 484,303.5C 484.167,304.333 484.333,305.167 484.5,306C 482.697,309.552 481.03,313.219 479.5,317C 479.833,318 480.167,319 480.5,320C 479.118,324.764 477.452,329.431 475.5,334C 475.989,335.138 476.322,336.305 476.5,337.5C 475.266,342.883 473.266,347.883 470.5,352.5C 469.5,352.5 468.5,352.5 467.5,352.5C 466.833,355.833 466.167,359.167 465.5,362.5C 464.85,362.196 464.183,361.863 463.5,361.5C 462.253,364.06 461.253,366.727 460.5,369.5C 459.232,368.572 457.899,368.405 456.5,369C 458.192,370.401 458.859,372.234 458.5,374.5C 457.5,374.5 456.5,374.5 455.5,374.5C 455.388,370.661 454.721,370.661 453.5,374.5C 454.415,375.328 455.081,376.328 455.5,377.5C 454.453,379.056 453.786,380.723 453.5,382.5C 452.5,382.5 451.5,382.5 450.5,382.5C 449.043,385.652 448.043,388.985 447.5,392.5C 446.066,395.047 444.4,397.381 442.5,399.5C 440.5,399.5 438.5,399.5 436.5,399.5C 436.5,401.5 436.5,403.5 436.5,405.5C 433.365,405.548 431.698,407.215 431.5,410.5C 427.865,413.634 424.365,416.967 421,420.5C 420.517,421.448 420.351,422.448 420.5,423.5C 409.824,435.655 397.491,445.655 383.5,453.5C 381.082,451.985 379.415,452.651 378.5,455.5C 376.955,456.452 375.288,456.785 373.5,456.5C 373.5,457.5 373.5,458.5 373.5,459.5C 372.167,459.5 370.833,459.5 369.5,459.5C 369.5,460.5 369.5,461.5 369.5,462.5C 367.473,462.338 365.473,462.505 363.5,463C 364.598,463.77 364.598,464.603 363.5,465.5C 361.819,467.008 359.819,468.008 357.5,468.5C 353.089,467.66 349.423,468.827 346.5,472C 343.054,472.661 339.721,473.495 336.5,474.5C 336.5,475.5 336.5,476.5 336.5,477.5C 329.636,481.009 322.302,483.342 314.5,484.5C 311.848,484.41 309.515,485.076 307.5,486.5C 302.62,487.969 297.62,488.969 292.5,489.5C 289.833,489.5 287.167,489.5 284.5,489.5C 280.513,489.716 276.68,489.049 273,487.5C 272.5,487.667 272,487.833 271.5,488C 272.672,488.419 273.672,489.085 274.5,490C 261.482,489.983 248.482,490.15 235.5,490.5C 229.355,487.961 222.855,486.294 216,485.5C 211.615,485.395 207.448,486.062 203.5,487.5C 203.167,487.5 202.833,487.5 202.5,487.5C 202.047,486.542 201.381,485.708 200.5,485C 194.759,484.566 189.092,483.733 183.5,482.5C 180.495,480.723 177.162,479.723 173.5,479.5C 164.303,476.897 155.637,473.23 147.5,468.5C 147.196,467.85 146.863,467.183 146.5,466.5C 142.484,464.333 138.484,462.166 134.5,460C 131.891,457.068 128.558,455.568 124.5,455.5C 123.508,455.672 122.842,455.338 122.5,454.5C 122.027,453.094 121.027,452.427 119.5,452.5C 115.049,449.889 110.716,447.056 106.5,444C 100.381,439.283 94.7146,434.117 89.5,428.5C 88.0892,426.086 86.0892,424.419 83.5,423.5C 79.2766,419.398 75.2766,415.065 71.5,410.5C 70.6371,409.06 70.6371,407.726 71.5,406.5C 66.5255,403.66 63.5255,399.326 62.5,393.5C 57.5816,391.44 54.5816,387.773 53.5,382.5C 52.5,382.5 51.5,382.5 50.5,382.5C 48.4042,379.738 46.7375,376.738 45.5,373.5C 43.5196,365.872 40.1862,358.872 35.5,352.5C 36.3681,349.532 36.7014,346.699 36.5,344C 33.6408,343.362 31.3075,341.529 29.5,338.5C 21.7506,321.061 16.9173,302.728 15,283.5C 8.94603,236.557 16.1127,191.89 36.5,149.5C 49.8148,120.517 68.4815,95.5165 92.5,74.5C 94.7488,73.9202 96.4154,72.5869 97.5,70.5C 99.736,69.6109 101.736,68.2776 103.5,66.5C 104.951,68.5589 106.951,69.5589 109.5,69.5C 109.439,67.4078 108.439,65.9078 106.5,65C 108.473,64.5045 110.473,64.3379 112.5,64.5C 112.222,62.6536 112.889,61.3202 114.5,60.5C 115.914,61.624 117.414,62.624 119,63.5C 119.617,62.5509 119.451,61.7175 118.5,61C 120.734,60.0311 122.734,58.6978 124.5,57C 123.672,56.0853 122.672,55.4186 121.5,55C 122.973,54.2904 123.64,53.1238 123.5,51.5C 125.655,51.628 127.655,51.128 129.5,50C 131.156,48.1706 133.156,46.8372 135.5,46C 136.252,45.3292 136.586,44.4959 136.5,43.5C 152.37,33.9815 169.37,26.9815 187.5,22.5C 190.152,22.5905 192.485,21.9238 194.5,20.5C 198.893,20.4568 199.226,20.9568 195.5,22C 197.414,23.8272 199.414,23.8272 201.5,22C 200.833,21.6667 200.167,21.3333 199.5,21C 203.524,19.903 207.024,20.7364 210,23.5C 211.225,23.1377 212.391,22.6377 213.5,22C 211.779,21.2607 210.113,20.4274 208.5,19.5C 211.298,18.0311 214.298,17.1978 217.5,17C 238.831,16.5 260.164,16.3334 281.5,16.5 Z M 183.5,217.5 C 182.167,216.5 180.833,215.5 179.5,214.5C 173.355,213.51 167.022,213.177 160.5,213.5C 160.333,240.835 160.5,268.169 161,295.5C 162.333,296.167 163.667,296.833 165,297.5C 165.497,300.146 165.664,302.813 165.5,305.5C 157.5,305.5 149.5,305.5 141.5,305.5C 141.336,302.813 141.503,300.146 142,297.5C 142.671,296.748 143.504,296.414 144.5,296.5C 145.15,296.196 145.817,295.863 146.5,295.5C 147.667,268.506 147.833,241.506 147,214.5C 140.582,213.357 134.082,213.19 127.5,214C 126.5,215 125.5,216 124.5,217C 121.183,217.498 117.85,217.665 114.5,217.5C 114.5,211.833 114.5,206.167 114.5,200.5C 140.5,200.5 166.5,200.5 192.5,200.5C 192.5,206.167 192.5,211.833 192.5,217.5C 189.5,217.5 186.5,217.5 183.5,217.5 Z M 268.5,214.5 C 259.265,213.184 249.932,213.184 240.5,214.5C 230.663,218.819 227.497,226.152 231,236.5C 233.264,239.433 236.098,241.6 239.5,243C 248.127,244.829 256.794,246.496 265.5,248C 285.158,255.816 291.324,269.649 284,289.5C 278.265,299.122 269.765,304.288 258.5,305C 245.171,305.5 231.837,305.667 218.5,305.5C 218.5,298.5 218.5,291.5 218.5,284.5C 221.898,284.18 225.232,284.513 228.5,285.5C 229.214,287.811 230.214,289.978 231.5,292C 242.892,292.909 254.225,292.576 265.5,291C 274.192,285.254 276.692,277.421 273,267.5C 270.292,263.896 266.792,261.396 262.5,260C 255.833,259 249.167,258 242.5,257C 223.504,252.478 215.337,240.645 218,221.5C 222.483,210.356 230.65,203.523 242.5,201C 255.496,200.5 268.496,200.333 281.5,200.5C 281.5,207.167 281.5,213.833 281.5,220.5C 278.482,220.665 275.482,220.498 272.5,220C 271.512,217.833 270.179,216 268.5,214.5 Z M 333.5,221.5 C 337.046,215.169 339.046,208.169 339.5,200.5C 346.289,199.899 352.789,200.566 359,202.5C 367.667,233.167 376.333,263.833 385,294.5C 386.441,295.87 388.108,296.87 390,297.5C 390.497,300.146 390.664,302.813 390.5,305.5C 382.833,305.5 375.167,305.5 367.5,305.5C 367.5,302.5 367.5,299.5 367.5,296.5C 368.833,296.5 370.167,296.5 371.5,296.5C 371.124,291.374 370.124,286.374 368.5,281.5C 355.829,281.333 343.162,281.5 330.5,282C 329.017,285.923 327.684,289.923 326.5,294C 327.377,295.867 328.877,297.034 331,297.5C 331.497,300.146 331.664,302.813 331.5,305.5C 323.833,305.5 316.167,305.5 308.5,305.5C 308.5,302.5 308.5,299.5 308.5,296.5C 310.714,296.709 312.381,295.876 313.5,294C 320.406,269.874 327.073,245.707 333.5,221.5 Z"/></g>
<g><path style="opacity:0.643" fill="#8edee9" d="M 303.5,18.5 C 306.067,18.7215 308.401,19.3882 310.5,20.5C 307.772,20.8294 305.438,20.1628 303.5,18.5 Z"/></g>
<g><path style="opacity:1" fill="#76c9de" d="M 194.5,20.5 C 192.485,21.9238 190.152,22.5905 187.5,22.5C 189.515,21.0762 191.848,20.4095 194.5,20.5 Z"/></g>
<g><path style="opacity:1" fill="#54b8cc" d="M 311.5,20.5 C 319.175,22.0596 326.508,24.393 333.5,27.5C 327.868,26.571 322.202,25.7376 316.5,25C 314.308,23.9331 312.642,22.4331 311.5,20.5 Z"/></g>
<g><path style="opacity:1" fill="#42b1c8" d="M 339.5,29.5 C 346.964,32.0674 353.964,35.4008 360.5,39.5C 355.985,39.7284 351.652,39.0617 347.5,37.5C 347.5,36.5 347.5,35.5 347.5,34.5C 344.098,33.9311 341.431,32.2644 339.5,29.5 Z"/></g>
<g><path style="opacity:1" fill="#55b9cc" d="M 360.5,39.5 C 365.984,41.4068 370.984,44.0734 375.5,47.5C 371.314,46.4106 367.314,44.7439 363.5,42.5C 362.007,41.8589 361.007,40.8589 360.5,39.5 Z"/></g>
<g><path style="opacity:1" fill="#53b8c9" d="M 376.5,47.5 C 383.554,51.6868 390.221,56.3534 396.5,61.5C 395.022,61.762 393.689,61.4287 392.5,60.5C 387.201,56.3606 381.535,52.8606 375.5,50C 376.252,49.3292 376.586,48.4959 376.5,47.5 Z"/></g>
<g><path style="opacity:1" fill="#32adc8" d="M 136.5,43.5 C 136.586,44.4959 136.252,45.3292 135.5,46C 133.156,46.8372 131.156,48.1706 129.5,50C 127.655,51.128 125.655,51.628 123.5,51.5C 123.64,53.1238 122.973,54.2904 121.5,55C 122.672,55.4186 123.672,56.0853 124.5,57C 122.734,58.6978 120.734,60.0311 118.5,61C 119.451,61.7175 119.617,62.5509 119,63.5C 117.414,62.624 115.914,61.624 114.5,60.5C 112.889,61.3202 112.222,62.6536 112.5,64.5C 110.473,64.3379 108.473,64.5045 106.5,65C 108.439,65.9078 109.439,67.4078 109.5,69.5C 106.951,69.5589 104.951,68.5589 103.5,66.5C 101.736,68.2776 99.736,69.6109 97.5,70.5C 109.117,59.5574 122.117,50.5574 136.5,43.5 Z"/></g>
<g><path style="opacity:0.722" fill="#82cede" d="M 97.5,70.5 C 96.4154,72.5869 94.7488,73.9202 92.5,74.5C 93.5846,72.4131 95.2512,71.0798 97.5,70.5 Z"/></g>
<g><path style="opacity:1" fill="#3aaec7" d="M 396.5,61.5 C 412.795,73.4609 427.128,87.4609 439.5,103.5C 438.504,103.414 437.671,103.748 437,104.5C 437.148,103.175 436.982,102.008 436.5,101C 434.866,100.506 433.199,100.34 431.5,100.5C 431.815,98.7741 431.981,97.1075 432,95.5C 429.958,95.1821 427.791,95.0154 425.5,95C 425.833,94.6667 426.167,94.3333 426.5,94C 424.114,93.7165 423.448,92.7165 424.5,91C 421.333,86.8333 418.167,82.6667 415,78.5C 414,78.1667 413,77.8333 412,77.5C 411.517,76.552 411.351,75.552 411.5,74.5C 410.448,74.6495 409.448,74.4828 408.5,74C 406.082,70.9531 403.082,68.6198 399.5,67C 399.833,66.6667 400.167,66.3333 400.5,66C 399.285,63.9045 398.451,64.0712 398,66.5C 397.392,64.8455 396.892,63.1789 396.5,61.5 Z"/></g>
<g><path style="opacity:1" fill="#41b0c9" d="M 439.5,103.5 C 444.601,108.936 448.934,114.936 452.5,121.5C 449.851,119.86 447.184,118.193 444.5,116.5C 443.289,115.28 443.289,114.113 444.5,113C 441.646,110.459 439.979,107.292 439.5,103.5 Z"/></g>
<g><path style="opacity:0.569" fill="#65cbe0" d="M 194.5,199.5 C 194.167,199.5 193.833,199.5 193.5,199.5C 166.833,199.5 140.167,199.5 113.5,199.5C 113.5,206.167 113.5,212.833 113.5,219.5C 112.509,212.687 112.175,205.687 112.5,198.5C 140.005,198.169 167.338,198.502 194.5,199.5 Z"/></g>
<g><path style="opacity:0.177" fill="#e3fefe" d="M 193.5,199.5 C 193.5,205.833 193.5,212.167 193.5,218.5C 189.958,218.813 186.625,218.479 183.5,217.5C 186.5,217.5 189.5,217.5 192.5,217.5C 192.5,211.833 192.5,206.167 192.5,200.5C 166.5,200.5 140.5,200.5 114.5,200.5C 114.5,206.167 114.5,211.833 114.5,217.5C 117.962,218.482 121.629,218.815 125.5,218.5C 121.702,219.483 117.702,219.817 113.5,219.5C 113.5,212.833 113.5,206.167 113.5,199.5C 140.167,199.5 166.833,199.5 193.5,199.5 Z"/></g>
<g><path style="opacity:0.284" fill="#b8f4fa" d="M 282.5,199.5 C 283.492,206.982 283.825,214.648 283.5,222.5C 278.968,222.818 274.634,222.485 270.5,221.5C 274.5,221.5 278.5,221.5 282.5,221.5C 282.5,214.167 282.5,206.833 282.5,199.5 Z"/></g>
<g><path style="opacity:1" fill="#1da9c5" d="M 194.5,199.5 C 195.059,203.052 196.059,206.552 197.5,210C 195.611,213.524 196.611,215.357 200.5,215.5C 200.384,212.09 202.05,210.756 205.5,211.5C 205.148,208.927 205.648,206.594 207,204.5C 207.219,205.938 207.719,207.271 208.5,208.5C 209.086,208.291 209.586,207.957 210,207.5C 209.342,211.784 209.508,216.117 210.5,220.5C 214.37,222.314 216.037,220.981 215.5,216.5C 214.5,216.5 213.5,216.5 212.5,216.5C 211.599,212.759 212.932,210.759 216.5,210.5C 216.34,212.199 216.506,213.866 217,215.5C 217.779,212.903 218.279,212.903 218.5,215.5C 212.669,229.181 215.003,241.181 225.5,251.5C 223.289,251.033 221.289,250.033 219.5,248.5C 216.187,244.064 214.354,239.064 214,233.5C 213,234.833 212,234.833 211,233.5C 210.333,235.5 209.667,237.5 209,239.5C 207.226,237.487 207.393,235.487 209.5,233.5C 208.601,231.292 208.935,229.126 210.5,227C 209.323,224.281 207.657,222.781 205.5,222.5C 206.482,219.904 207.149,217.238 207.5,214.5C 206.448,214.351 205.448,214.517 204.5,215C 202.842,217.675 201.009,220.175 199,222.5C 195.818,221.085 192.818,221.419 190,223.5C 188.189,222.576 188.355,221.743 190.5,221C 186.459,220.827 182.459,220.327 178.5,219.5C 176.473,215.895 173.973,215.561 171,218.5C 168.928,215.846 167.261,216.18 166,219.5C 165.259,218.359 164.425,218.359 163.5,219.5C 162.241,244.685 162.241,269.685 163.5,294.5C 161.509,268.521 160.842,242.188 161.5,215.5C 167.176,215.334 172.843,215.501 178.5,216C 179.5,217 180.5,218 181.5,219C 185.821,219.499 190.154,219.666 194.5,219.5C 194.5,212.833 194.5,206.167 194.5,199.5 Z"/></g>
<g><path style="opacity:0.07" fill="#dbf7fb" d="M 144.5,296.5 C 144.5,295.833 144.5,295.167 144.5,294.5C 145.498,271.006 145.831,247.339 145.5,223.5C 145.5,220.833 145.5,218.167 145.5,215.5C 139.491,215.334 133.491,215.501 127.5,216C 126.934,216.995 126.267,217.828 125.5,218.5C 121.629,218.815 117.962,218.482 114.5,217.5C 117.85,217.665 121.183,217.498 124.5,217C 125.5,216 126.5,215 127.5,214C 134.082,213.19 140.582,213.357 147,214.5C 147.833,241.506 147.667,268.506 146.5,295.5C 145.817,295.863 145.15,296.196 144.5,296.5 Z"/></g>
<g><path style="opacity:0.237" fill="#e5fefe" d="M 179.5,214.5 C 173.31,214.177 167.31,214.51 161.5,215.5C 160.842,242.188 161.509,268.521 163.5,294.5C 164.708,295.234 166.041,295.567 167.5,295.5C 167.5,299.167 167.5,302.833 167.5,306.5C 158.5,306.5 149.5,306.5 140.5,306.5C 140.177,302.774 140.511,299.107 141.5,295.5C 142.417,294.873 143.417,294.539 144.5,294.5C 144.5,295.167 144.5,295.833 144.5,296.5C 143.504,296.414 142.671,296.748 142,297.5C 141.503,300.146 141.336,302.813 141.5,305.5C 149.5,305.5 157.5,305.5 165.5,305.5C 165.664,302.813 165.497,300.146 165,297.5C 163.667,296.833 162.333,296.167 161,295.5C 160.5,268.169 160.333,240.835 160.5,213.5C 167.022,213.177 173.355,213.51 179.5,214.5 Z"/></g>
<g><path style="opacity:0.306" fill="#bcf4fd" d="M 193.5,199.5 C 193.833,199.5 194.167,199.5 194.5,199.5C 194.5,206.167 194.5,212.833 194.5,219.5C 190.154,219.666 185.821,219.499 181.5,219C 180.5,218 179.5,217 178.5,216C 172.843,215.501 167.176,215.334 161.5,215.5C 167.31,214.51 173.31,214.177 179.5,214.5C 180.833,215.5 182.167,216.5 183.5,217.5C 186.625,218.479 189.958,218.813 193.5,218.5C 193.5,212.167 193.5,205.833 193.5,199.5 Z"/></g>
<g><path style="opacity:0.216" fill="#b0ecf3" d="M 333.5,217.5 C 333.5,218.833 333.5,220.167 333.5,221.5C 332.833,222.5 332.167,223.5 331.5,224.5C 331.41,221.848 332.076,219.515 333.5,217.5 Z"/></g>
<g><path style="opacity:0.794" fill="#2ea9c1" d="M 145.5,223.5 C 145.831,247.339 145.498,271.006 144.5,294.5C 143.417,294.539 142.417,294.873 141.5,295.5C 140.511,299.107 140.177,302.774 140.5,306.5C 139.099,306.029 137.766,305.362 136.5,304.5C 137.262,300.889 137.762,297.222 138,293.5C 140.041,292.577 142.208,292.244 144.5,292.5C 144.169,269.327 144.502,246.327 145.5,223.5 Z"/></g>
<g><path style="opacity:0.165" fill="#dafafd" d="M 282.5,199.5 C 282.5,206.833 282.5,214.167 282.5,221.5C 278.5,221.5 274.5,221.5 270.5,221.5C 270.107,219.716 269.441,218.05 268.5,216.5C 268.5,215.833 268.5,215.167 268.5,214.5C 270.179,216 271.512,217.833 272.5,220C 275.482,220.498 278.482,220.665 281.5,220.5C 281.5,213.833 281.5,207.167 281.5,200.5C 268.496,200.333 255.496,200.5 242.5,201C 230.65,203.523 222.483,210.356 218,221.5C 215.337,240.645 223.504,252.478 242.5,257C 249.167,258 255.833,259 262.5,260C 266.792,261.396 270.292,263.896 273,267.5C 276.692,277.421 274.192,285.254 265.5,291C 254.225,292.576 242.892,292.909 231.5,292C 230.214,289.978 229.214,287.811 228.5,285.5C 225.232,284.513 221.898,284.18 218.5,284.5C 218.5,291.5 218.5,298.5 218.5,305.5C 231.837,305.667 245.171,305.5 258.5,305C 269.765,304.288 278.265,299.122 284,289.5C 291.324,269.649 285.158,255.816 265.5,248C 256.794,246.496 248.127,244.829 239.5,243C 236.098,241.6 233.264,239.433 231,236.5C 227.497,226.152 230.663,218.819 240.5,214.5C 240.167,215.167 239.833,215.833 239.5,216.5C 231.039,221.598 229.206,228.598 234,237.5C 236.953,239.726 240.12,241.559 243.5,243C 259.514,241.935 273.014,247.102 284,258.5C 292.214,274.442 289.714,288.609 276.5,301C 273.185,302.83 269.851,304.33 266.5,305.5C 249.881,306.471 233.214,306.805 216.5,306.5C 216.5,298.833 216.5,291.167 216.5,283.5C 220.846,283.334 225.179,283.501 229.5,284C 230.627,285.753 231.627,287.587 232.5,289.5C 233.325,290.386 234.325,290.719 235.5,290.5C 244.506,290.666 253.506,290.5 262.5,290C 271.177,285.81 274.343,278.976 272,269.5C 269.463,266.628 266.63,264.128 263.5,262C 254.072,260.982 244.739,259.315 235.5,257C 231.789,255.773 228.455,253.94 225.5,251.5C 215.003,241.181 212.669,229.181 218.5,215.5C 223.062,207.708 229.729,202.541 238.5,200C 253.163,199.5 267.83,199.333 282.5,199.5 Z M 268.5,214.5 C 259.265,213.184 249.932,213.184 240.5,214.5C 230.663,218.819 227.497,226.152 231,236.5C 233.264,239.433 236.098,241.6 239.5,243C 248.127,244.829 256.794,246.496 265.5,248C 285.158,255.816 291.324,269.649 284,289.5C 278.265,299.122 269.765,304.288 258.5,305C 245.171,305.5 231.837,305.667 218.5,305.5C 218.5,298.5 218.5,291.5 218.5,284.5C 221.898,284.18 225.232,284.513 228.5,285.5C 229.214,287.811 230.214,289.978 231.5,292C 242.892,292.909 254.225,292.576 265.5,291C 274.192,285.254 276.692,277.421 273,267.5C 270.292,263.896 266.792,261.396 262.5,260C 255.833,259 249.167,258 242.5,257C 223.504,252.478 215.337,240.645 218,221.5C 222.483,210.356 230.65,203.523 242.5,201C 255.496,200.5 268.496,200.333 281.5,200.5C 281.5,207.167 281.5,213.833 281.5,220.5C 278.482,220.665 275.482,220.498 272.5,220C 271.512,217.833 270.179,216 268.5,214.5 Z"/></g>
<g><path style="opacity:0.36" fill="#ccf3fb" d="M 268.5,214.5 C 268.5,215.167 268.5,215.833 268.5,216.5C 258.863,215.19 249.197,215.19 239.5,216.5C 239.833,215.833 240.167,215.167 240.5,214.5C 249.932,213.184 259.265,213.184 268.5,214.5 Z"/></g>
<g><path style="opacity:0.998" fill="#22a7c1" d="M 225.5,251.5 C 228.455,253.94 231.789,255.773 235.5,257C 244.739,259.315 254.072,260.982 263.5,262C 266.63,264.128 269.463,266.628 272,269.5C 274.343,278.976 271.177,285.81 262.5,290C 253.506,290.5 244.506,290.666 235.5,290.5C 244.716,289.887 254.049,289.054 263.5,288C 265,285.167 267.167,283 270,281.5C 272.706,269.331 267.539,262.998 254.5,262.5C 251.092,264.795 246.592,266.129 241,266.5C 239.908,265.704 238.741,265.037 237.5,264.5C 232.94,266.154 228.274,266.654 223.5,266C 226.683,264.25 230.016,262.917 233.5,262C 236.756,261.633 239.923,262.133 243,263.5C 244.728,263.546 246.228,263.046 247.5,262C 243.333,260.833 239.167,259.667 235,258.5C 231.436,258.899 227.936,259.566 224.5,260.5C 223.692,260.192 223.025,259.692 222.5,259C 226.353,257.603 227.353,255.103 225.5,251.5 Z"/></g>
<g><path style="opacity:0.894" fill="#26a5be" d="M 321.5,259.5 C 318.024,271.259 314.357,282.926 310.5,294.5C 309.264,295.246 307.93,295.579 306.5,295.5C 306.5,298.833 306.5,302.167 306.5,305.5C 305.325,305.719 304.325,305.386 303.5,304.5C 304.833,301.167 304.833,297.833 303.5,294.5C 304.008,292.096 305.175,291.429 307,292.5C 308.333,291.833 309.667,291.167 311,290.5C 312.102,286.584 312.769,282.584 313,278.5C 313.333,278.833 313.667,279.167 314,279.5C 314.207,275.911 314.707,272.411 315.5,269C 315.043,268.586 314.709,268.086 314.5,267.5C 317.165,265.671 319.498,263.004 321.5,259.5 Z"/></g>
<g><path style="opacity:1" fill="#26a8c1" d="M 376.5,255.5 C 377.944,258.402 379.444,261.402 381,264.5C 382,269.167 383,273.833 384,278.5C 387.523,282.625 388.69,287.292 387.5,292.5C 388.833,292.5 390.167,292.5 391.5,292.5C 391.215,290.712 391.548,289.045 392.5,287.5C 392.833,288.833 393.167,290.167 393.5,291.5C 393.066,296.678 392.399,301.678 391.5,306.5C 391.823,302.774 391.489,299.107 390.5,295.5C 389.264,294.754 387.93,294.421 386.5,294.5C 383.169,281.506 379.836,268.506 376.5,255.5 Z"/></g>
<g><path style="opacity:0.239" fill="#dcfbfd" d="M 376.5,255.5 C 379.836,268.506 383.169,281.506 386.5,294.5C 387.93,294.421 389.264,294.754 390.5,295.5C 391.489,299.107 391.823,302.774 391.5,306.5C 382.833,306.5 374.167,306.5 365.5,306.5C 365.177,302.774 365.511,299.107 366.5,295.5C 367.902,295.135 368.902,294.301 369.5,293C 368.923,291.1 368.256,289.267 367.5,287.5C 367.5,286.167 367.5,284.833 367.5,283.5C 355.482,283.168 343.482,283.501 331.5,284.5C 330.118,287.192 329.118,290.026 328.5,293C 328.748,294.749 329.748,295.582 331.5,295.5C 331.833,295.5 332.167,295.5 332.5,295.5C 332.5,299.167 332.5,302.833 332.5,306.5C 323.833,306.5 315.167,306.5 306.5,306.5C 306.5,306.167 306.5,305.833 306.5,305.5C 306.5,302.167 306.5,298.833 306.5,295.5C 307.93,295.579 309.264,295.246 310.5,294.5C 314.357,282.926 318.024,271.259 321.5,259.5C 324.46,247.632 327.793,235.966 331.5,224.5C 332.167,223.5 332.833,222.5 333.5,221.5C 333.5,220.167 333.5,218.833 333.5,217.5C 334.834,211.498 336.167,205.498 337.5,199.5C 345.167,199.5 352.833,199.5 360.5,199.5C 365.465,218.363 370.799,237.029 376.5,255.5 Z M 333.5,221.5 C 327.073,245.707 320.406,269.874 313.5,294C 312.381,295.876 310.714,296.709 308.5,296.5C 308.5,299.5 308.5,302.5 308.5,305.5C 316.167,305.5 323.833,305.5 331.5,305.5C 331.664,302.813 331.497,300.146 331,297.5C 328.877,297.034 327.377,295.867 326.5,294C 327.684,289.923 329.017,285.923 330.5,282C 343.162,281.5 355.829,281.333 368.5,281.5C 370.124,286.374 371.124,291.374 371.5,296.5C 370.167,296.5 368.833,296.5 367.5,296.5C 367.5,299.5 367.5,302.5 367.5,305.5C 375.167,305.5 382.833,305.5 390.5,305.5C 390.664,302.813 390.497,300.146 390,297.5C 388.108,296.87 386.441,295.87 385,294.5C 376.333,263.833 367.667,233.167 359,202.5C 352.789,200.566 346.289,199.899 339.5,200.5C 339.046,208.169 337.046,215.169 333.5,221.5 Z"/></g>
<g><path style="opacity:0.788" fill="#249eb5" d="M 367.5,287.5 C 366.596,286.791 366.263,285.791 366.5,284.5C 355.48,284.168 344.48,284.501 333.5,285.5C 330.604,288.413 329.937,291.746 331.5,295.5C 329.748,295.582 328.748,294.749 328.5,293C 329.118,290.026 330.118,287.192 331.5,284.5C 343.482,283.501 355.482,283.168 367.5,283.5C 367.5,284.833 367.5,286.167 367.5,287.5 Z"/></g>
<g><path style="opacity:0.039" fill="#e2fdfe" d="M 347.5,219.5 C 348.833,219.5 350.167,219.5 351.5,219.5C 355.972,235.723 359.972,252.056 363.5,268.5C 353.563,268.661 343.729,268.661 334,268.5C 333.672,265.793 334.005,263.126 335,260.5C 339.861,247.081 344.028,233.414 347.5,219.5 Z"/></g>
<g><path style="opacity:0.584" fill="#60c3d8" d="M 361.5,264.5 C 362.404,265.209 362.737,266.209 362.5,267.5C 353.651,267.826 344.984,267.493 336.5,266.5C 345.234,267.135 353.567,266.468 361.5,264.5 Z"/></g>
<g><path style="opacity:1" fill="#1ea7c3" d="M 361.5,264.5 C 353.567,266.468 345.234,267.135 336.5,266.5C 338.604,258 340.938,249.667 343.5,241.5C 344.707,234.671 346.541,228.005 349,221.5C 353.73,235.632 357.896,249.966 361.5,264.5 Z"/></g>
<g><path style="opacity:1" fill="#02a8ca" d="M 343.5,241.5 C 344.222,241.918 344.722,242.584 345,243.5C 345.452,240.851 346.286,238.351 347.5,236C 349.107,236.019 350.774,236.185 352.5,236.5C 352.271,238.433 351.438,240.1 350,241.5C 349.667,241.167 349.333,240.833 349,240.5C 348.088,242.659 347.255,244.825 346.5,247C 348.072,250.417 349.239,250.251 350,246.5C 351.398,247.051 352.732,247.384 354,247.5C 354.868,252.217 356.368,256.717 358.5,261C 357.397,266.556 356.064,266.722 354.5,261.5C 353.833,262.833 353.167,264.167 352.5,265.5C 351.784,264.689 350.95,264.022 350,263.5C 347.953,264.609 345.787,265.276 343.5,265.5C 343.788,262.195 342.788,259.362 340.5,257C 341.743,255.846 342.743,254.512 343.5,253C 342.483,249.227 342.483,245.394 343.5,241.5 Z"/></g>
<g><path style="opacity:0.071" fill="#dcfafd" d="M 471.5,156.5 C 472.794,157.29 473.961,158.29 475,159.5C 497.68,216.573 499.346,274.239 480,332.5C 479.623,333.942 478.79,334.942 477.5,335.5C 488.114,305.422 492.781,274.422 491.5,242.5C 490.554,212.426 483.888,183.76 471.5,156.5 Z"/></g>
<g><path style="opacity:0.584" fill="#78c7da" d="M 332.5,295.5 C 333.483,299.298 333.817,303.298 333.5,307.5C 324.318,307.827 315.318,307.493 306.5,306.5C 315.167,306.5 323.833,306.5 332.5,306.5C 332.5,302.833 332.5,299.167 332.5,295.5 Z"/></g>
<g><path style="opacity:1" fill="#2faec9" d="M 266.5,305.5 C 266.611,306.117 266.944,306.617 267.5,307C 264.946,310.353 261.613,312.52 257.5,313.5C 246.604,311.925 235.604,310.925 224.5,310.5C 236.248,309.96 247.915,309.126 259.5,308C 244.994,307.831 230.661,307.331 216.5,306.5C 233.214,306.805 249.881,306.471 266.5,305.5 Z"/></g>
<g><path style="opacity:0.999" fill="#26a8c3" d="M 491.5,242.5 C 492.781,274.422 488.114,305.422 477.5,335.5C 477.672,336.492 477.338,337.158 476.5,337.5C 476.322,336.305 475.989,335.138 475.5,334C 477.452,329.431 479.118,324.764 480.5,320C 480.167,319 479.833,318 479.5,317C 481.03,313.219 482.697,309.552 484.5,306C 484.333,305.167 484.167,304.333 484,303.5C 482.725,306.577 481.225,307.077 479.5,305C 479.611,303.278 480.111,303.112 481,304.5C 481.17,298.804 481.67,293.138 482.5,287.5C 483.167,290.833 483.833,294.167 484.5,297.5C 487.915,293.7 488.248,289.7 485.5,285.5C 486,284.5 486.5,283.5 487,282.5C 487.333,282.833 487.667,283.167 488,283.5C 489.532,269.708 490.699,256.041 491.5,242.5 Z"/></g>
<g><path style="opacity:0.075" fill="#daf9fc" d="M 36.5,149.5 C 16.1127,191.89 8.94603,236.557 15,283.5C 16.9173,302.728 21.7506,321.061 29.5,338.5C 30.969,343.574 32.6357,348.574 34.5,353.5C 33.6236,353.631 32.9569,353.298 32.5,352.5C 4.35313,285.765 4.51979,219.099 33,152.5C 34.0391,151.29 35.2058,150.29 36.5,149.5 Z"/></g>
<g><path style="opacity:1" fill="#5cbfce" d="M 470.5,352.5 C 469.341,356.151 467.674,359.485 465.5,362.5C 466.167,359.167 466.833,355.833 467.5,352.5C 468.5,352.5 469.5,352.5 470.5,352.5 Z"/></g>
<g><path style="opacity:1" fill="#3eaec6" d="M 29.5,338.5 C 31.3075,341.529 33.6408,343.362 36.5,344C 36.7014,346.699 36.3681,349.532 35.5,352.5C 40.1862,358.872 43.5196,365.872 45.5,373.5C 41.3414,367.189 37.6748,360.523 34.5,353.5C 32.6357,348.574 30.969,343.574 29.5,338.5 Z"/></g>
<g><path style="opacity:1" fill="#52b8cc" d="M 465.5,362.5 C 460.503,373.171 454.503,383.171 447.5,392.5C 448.043,388.985 449.043,385.652 450.5,382.5C 451.5,382.5 452.5,382.5 453.5,382.5C 453.786,380.723 454.453,379.056 455.5,377.5C 455.081,376.328 454.415,375.328 453.5,374.5C 454.721,370.661 455.388,370.661 455.5,374.5C 456.5,374.5 457.5,374.5 458.5,374.5C 458.859,372.234 458.192,370.401 456.5,369C 457.899,368.405 459.232,368.572 460.5,369.5C 461.253,366.727 462.253,364.06 463.5,361.5C 464.183,361.863 464.85,362.196 465.5,362.5 Z"/></g>
<g><path style="opacity:1" fill="#4cb6ca" d="M 50.5,382.5 C 51.5,382.5 52.5,382.5 53.5,382.5C 54.5816,387.773 57.5816,391.44 62.5,393.5C 63.5255,399.326 66.5255,403.66 71.5,406.5C 70.6371,407.726 70.6371,409.06 71.5,410.5C 63.762,401.756 56.762,392.423 50.5,382.5 Z"/></g>
<g><path style="opacity:1" fill="#4eb4c7" d="M 442.5,399.5 C 436.244,408.425 428.911,416.425 420.5,423.5C 420.351,422.448 420.517,421.448 421,420.5C 424.365,416.967 427.865,413.634 431.5,410.5C 431.698,407.215 433.365,405.548 436.5,405.5C 436.5,403.5 436.5,401.5 436.5,399.5C 438.5,399.5 440.5,399.5 442.5,399.5 Z"/></g>
<g><path style="opacity:0.808" fill="#93dce9" d="M 83.5,423.5 C 86.0892,424.419 88.0892,426.086 89.5,428.5C 86.9108,427.581 84.9108,425.914 83.5,423.5 Z"/></g>
<g><path style="opacity:0.471" fill="#a7e1ed" d="M 119.5,452.5 C 121.027,452.427 122.027,453.094 122.5,454.5C 120.973,454.573 119.973,453.906 119.5,452.5 Z"/></g>
<g><path style="opacity:1" fill="#4eb5cb" d="M 124.5,455.5 C 128.558,455.568 131.891,457.068 134.5,460C 138.484,462.166 142.484,464.333 146.5,466.5C 146.863,467.183 147.196,467.85 147.5,468.5C 139.059,465.359 131.392,461.026 124.5,455.5 Z"/></g>
<g><path style="opacity:1" fill="#61bcd1" d="M 383.5,453.5 C 379.21,456.985 374.543,459.985 369.5,462.5C 369.5,461.5 369.5,460.5 369.5,459.5C 370.833,459.5 372.167,459.5 373.5,459.5C 373.5,458.5 373.5,457.5 373.5,456.5C 375.288,456.785 376.955,456.452 378.5,455.5C 379.415,452.651 381.082,451.985 383.5,453.5 Z"/></g>
<g><path style="opacity:1" fill="#83cad9" d="M 369.5,462.5 C 367.819,464.008 365.819,465.008 363.5,465.5C 364.598,464.603 364.598,463.77 363.5,463C 365.473,462.505 367.473,462.338 369.5,462.5 Z"/></g>
<g><path style="opacity:1" fill="#57b8cf" d="M 357.5,468.5 C 350.906,472.293 343.906,475.293 336.5,477.5C 336.5,476.5 336.5,475.5 336.5,474.5C 339.721,473.495 343.054,472.661 346.5,472C 349.423,468.827 353.089,467.66 357.5,468.5 Z"/></g>
<g><path style="opacity:0.859" fill="#8dd4e4" d="M 173.5,479.5 C 177.162,479.723 180.495,480.723 183.5,482.5C 179.838,482.277 176.505,481.277 173.5,479.5 Z"/></g>
<g><path style="opacity:1" fill="#59bdce" d="M 183.5,482.5 C 189.092,483.733 194.759,484.566 200.5,485C 201.381,485.708 202.047,486.542 202.5,487.5C 195.777,486.904 189.444,485.237 183.5,482.5 Z"/></g>
<g><path style="opacity:0.016" fill="#a9eaf9" d="M 314.5,484.5 C 312.485,485.924 310.152,486.59 307.5,486.5C 309.515,485.076 311.848,484.41 314.5,484.5 Z"/></g>
<g><path style="opacity:1" fill="#44b0c7" d="M 284.5,489.5 C 282.833,490.167 281.167,490.833 279.5,491.5C 259.495,494.112 239.495,493.945 219.5,491C 213.889,490.514 208.556,489.347 203.5,487.5C 207.448,486.062 211.615,485.395 216,485.5C 222.855,486.294 229.355,487.961 235.5,490.5C 248.482,490.15 261.482,489.983 274.5,490C 273.672,489.085 272.672,488.419 271.5,488C 272,487.833 272.5,487.667 273,487.5C 276.68,489.049 280.513,489.716 284.5,489.5 Z"/></g>
<g><path style="opacity:0.11" fill="#b0edf4" d="M 284.5,489.5 C 287.167,489.5 289.833,489.5 292.5,489.5C 288.382,490.709 284.049,491.376 279.5,491.5C 281.167,490.833 282.833,490.167 284.5,489.5 Z"/></g>
</svg>
